<svg width="66" height="56" viewBox="0 0 66 56" fill="none" xmlns="http://www.w3.org/2000/svg">
<path d="M52.2305 44.2995L42.0498 50.3264L35.9304 53.9348C34.8055 54.596 33.2557 54.3684 32.4649 53.4259L30.2558 50.8082C29.8676 50.3334 29.2573 50.0193 28.5771 49.9444C22.9019 49.2982 19.0676 44.726 19.0676 44.726L1.84835 24.2098C0.651055 22.842 0.905388 20.9313 2.43337 19.8194C3.239 19.2764 4.27616 19.0371 5.29944 19.1578C6.32272 19.2781 7.2409 19.7478 7.83781 20.4556L6.75454 19.1649L3.42987 15.2015L2.21671 13.7655C1.27871 12.6453 1.3144 11.1444 2.30447 10.0567C2.54045 9.80412 2.81759 9.58067 3.12745 9.393C3.93606 8.91406 4.93802 8.72474 5.91321 8.86621C6.8884 9.00769 7.7565 9.46874 8.32615 10.1474L5.46701 6.7295C4.67328 5.81448 4.52901 4.61151 5.08973 3.58206C5.64996 2.55219 6.82841 1.85646 8.17196 1.76075C9.51601 1.66547 10.8164 2.18518 11.5755 3.12101L14.4455 6.53892C13.6518 5.62348 13.5075 4.42052 14.0682 3.39107C14.6284 2.36161 15.8064 1.66547 17.1505 1.56976C18.494 1.47447 19.7949 1.99419 20.5535 2.93002L25.0809 8.32943L34.1783 19.1657C35.0762 20.2838 36.1803 21.275 37.449 22.1018C38.0984 22.5066 38.9417 22.6219 39.7102 22.4105C40.4791 22.1987 41.0775 21.6873 41.3155 21.0382V21.029C41.2506 19.3201 40.8822 17.8479 40.8391 16.5114C40.7211 12.7389 40.2228 8.87578 42.259 7.66699C44.2951 6.45778 46.8399 8.64859 47.1652 11.5938C47.6728 16.1389 50.0992 19.9838 51.6584 25.456C52.6549 29.0013 51.9509 33.546 51.3337 36.3185C50.9643 37.9784 51.4095 39.6927 52.5681 41.0725L52.8284 41.3909C53.2121 41.8419 53.3648 42.4037 53.2523 42.95C53.1403 43.4964 52.7724 43.9824 52.2305 44.2995Z" fill="#DBFDF3"/>
<path d="M38.0643 22.8438V22.853C37.8263 23.5017 37.2279 24.0135 36.4594 24.2249C35.6905 24.4363 34.8472 24.3214 34.1977 23.9161C32.929 23.0893 31.8249 22.0986 30.9271 20.9801L21.8296 10.145L17.3027 4.74563C16.5784 3.87222 15.3741 3.36873 14.1074 3.40909C14.3836 2.91143 14.8089 2.48242 15.3424 2.1641C16.1525 1.68266 17.1584 1.4925 18.1361 1.63564C19.1143 1.7792 19.9838 2.24399 20.5515 2.92766L25.0789 8.32707L34.1764 19.1621C35.0743 20.2806 36.1778 21.2714 37.447 22.0982C37.6285 22.2109 37.8293 22.2996 38.043 22.362C38.0534 22.5163 38.0534 22.6799 38.0643 22.8438Z" fill="#7DDEC1"/>
<path d="M52.2316 44.296L42.0509 50.3225L35.932 53.9314C35.7436 54.0404 35.5399 54.1291 35.3252 54.1948L38.8021 52.1405L48.9823 46.114C49.5237 45.7965 49.8916 45.3101 50.0036 44.7637C50.1152 44.2174 49.962 43.6561 49.5782 43.205L49.3185 42.8871C48.1598 41.5069 47.7146 39.7925 48.0835 38.1331C48.7007 35.3605 49.4047 30.8154 48.4087 27.2702C46.849 21.7979 44.4227 17.9531 43.914 13.4079C43.6974 11.4173 42.4733 9.78115 41.0653 9.2993C41.2205 8.65309 41.6424 8.07345 42.2566 7.66317C44.2928 6.46311 46.8381 8.64476 47.1628 11.59C47.672 16.1351 50.0978 19.98 51.6575 25.4522C52.654 28.9974 51.95 33.5426 51.3328 36.3147C50.9634 37.9745 51.4087 39.6889 52.5673 41.0691L52.8271 41.387C53.2113 41.8381 53.3645 42.3994 53.2524 42.9458C53.1404 43.4921 52.773 43.9781 52.2316 44.296Z" fill="#7DDEC1"/>
<path d="M19.0676 44.7263C19.0676 44.7263 22.9019 49.2985 28.5771 49.9447C29.2573 50.0192 29.8676 50.3334 30.2557 50.8086L32.4649 53.4263C33.1119 54.1965 34.2938 54.5061 35.3478 54.1815L35.325 54.1953C35.3404 54.1953 35.3533 54.1807 35.3687 54.1761C35.5675 54.1171 35.7564 54.0359 35.9304 53.9352L36.147 53.81C35.9854 53.698 35.8416 53.569 35.7197 53.4263L33.51 50.8086C33.1223 50.3334 32.512 50.0192 31.8313 49.9447C26.1562 49.2985 22.3224 44.7263 22.3224 44.7263L5.09766 24.2101C3.89987 22.8424 4.1547 20.9316 5.68267 19.8198C5.90032 19.6745 6.13631 19.5497 6.38667 19.4469C6.08128 19.3196 5.75704 19.2281 5.42239 19.1744C4.36193 19.0208 3.2742 19.2559 2.43337 19.8198C0.905388 20.9316 0.651056 22.8424 1.84835 24.2101L19.0676 44.7263Z" fill="white"/>
<path d="M6.67803 15.2017L5.46636 13.7657C4.52736 12.646 4.56256 11.1447 5.55312 10.0569C5.78911 9.80437 6.06624 9.58092 6.3761 9.39325C6.5412 9.2988 6.71571 9.21641 6.89716 9.14608C6.58532 9.01376 6.25315 8.91847 5.91057 8.86355C4.93588 8.72124 3.93442 8.91098 3.1268 9.39076C2.81694 9.57842 2.53981 9.80187 2.30382 10.054C1.31326 11.1417 1.27806 12.6435 2.21706 13.7628L3.42922 15.1992L6.75388 19.1622L6.86791 19.297C7.45788 19.1352 8.08404 17.8681 8.68195 17.9534" fill="white"/>
<path d="M18.1792 45.2472L10.0718 35.586L0.961914 24.7327L2.73283 23.6858L11.8422 34.54L19.9501 44.1999L18.1792 45.2472Z" fill="white"/>
<path d="M14.0968 39.688C14.1702 39.6876 14.2436 39.6784 14.3135 39.661C14.3819 39.6526 14.4483 39.636 14.5108 39.611C14.5762 39.584 14.6392 39.5536 14.7002 39.5199C14.9317 39.378 15.0914 39.1687 15.1474 38.9328C15.1682 38.8142 15.1618 38.6935 15.128 38.5774C15.072 38.3398 14.9025 38.1322 14.6585 38.0032C14.4151 37.8738 14.1186 37.8343 13.8395 37.8938C13.7007 37.9179 13.5688 37.9658 13.4528 38.0336C13.0924 38.2441 12.9189 38.6165 13.014 38.9765C13.1087 39.3364 13.4533 39.6123 13.8861 39.6755L14.0968 39.688Z" fill="#20C997"/>
<path d="M1.7506 19.1105C-0.232497 20.5186 -0.578548 22.974 0.957859 24.7317L10.6954 36.3286C11.0399 36.7393 11.7157 36.8375 12.2045 36.5483C12.6933 36.2591 12.8108 35.692 12.4663 35.2817L2.73373 23.6864C1.87455 22.7082 2.03865 21.3425 3.11398 20.5286C3.68611 20.1424 4.42333 19.9722 5.15063 20.0584C5.87743 20.1445 6.52987 20.4791 6.95227 20.983L14.2456 29.673C14.4662 29.943 14.843 30.0924 15.2322 30.0641C15.6209 30.0358 15.961 29.834 16.1231 29.5361C16.2852 29.2381 16.2441 28.8903 16.015 28.6252L3.10556 13.2367C2.43279 12.4419 2.45907 11.3713 3.1705 10.6002C3.33361 10.4217 3.52746 10.2644 3.74659 10.1342C4.94488 9.4289 6.59631 9.66858 7.44309 10.6706L19.6392 25.2019C19.9837 25.6122 20.66 25.7104 21.1488 25.4208C21.6376 25.1316 21.7546 24.564 21.4096 24.1537L6.34594 6.20448C5.50957 5.19708 5.79613 3.81269 6.98797 3.10115C7.56307 2.75952 8.27649 2.62429 8.97008 2.72582C9.66416 2.82693 10.2814 3.15607 10.6855 3.64001L25.7496 21.5884C25.8453 21.6987 25.9697 21.7894 26.1135 21.8531C26.1571 21.8697 26.2017 21.8843 26.2478 21.8967C26.3475 21.9304 26.4526 21.9513 26.5597 21.9583C26.5855 21.9583 26.6093 21.9737 26.6355 21.9737C26.6866 21.97 26.7372 21.9637 26.7872 21.9546C26.8234 21.9517 26.8596 21.9467 26.8953 21.94C27.2434 21.8718 27.5274 21.6616 27.6524 21.3804C27.7773 21.0991 27.7257 20.7841 27.516 20.5411L15.3254 6.01099C14.4816 5.00526 14.7692 3.61546 15.9674 2.90766C17.1657 2.19944 18.8211 2.44078 19.6649 3.44652L33.2898 19.6797V19.6876C34.2566 20.886 35.4445 21.9479 36.8083 22.8338C37.4291 23.2121 38.1762 23.4164 38.9431 23.4172C39.3363 23.4168 39.7265 23.3623 40.0988 23.2553V23.2791C39.8271 24.0397 39.4662 24.7758 39.022 25.4769C37.9283 27.195 37.6373 29.1936 38.2064 31.0819C38.2877 31.4081 38.5748 31.6711 38.9551 31.7668C39.3353 31.8625 39.7473 31.7764 40.0294 31.5417C40.3115 31.307 40.4176 30.9621 40.3065 30.6421C39.8688 29.1919 40.0909 27.6569 40.9292 26.337C41.4959 25.4499 41.9371 24.5099 42.243 23.5366C42.484 21.8364 42.4443 20.1166 42.125 18.426C42.0254 17.7344 41.9312 17.0799 41.9084 16.4844C41.892 15.9734 41.8682 15.4608 41.8469 14.9519C41.7264 12.2401 41.5901 9.16509 42.8722 8.40694C43.181 8.20846 43.5995 8.18016 43.9425 8.33412C45.2529 9.09477 46.0471 10.3385 46.0759 11.6759C46.4993 14.408 47.2984 17.0894 48.4586 19.6668C49.2007 21.5322 49.9662 23.4592 50.5914 25.6663C51.5661 29.125 50.8075 33.718 50.2662 36.148C49.8457 38.0488 50.3529 40.0116 51.6742 41.5957L51.9364 41.9082C52.3836 42.4417 52.2314 43.1786 51.5963 43.5543L35.3042 53.1897C34.6671 53.5634 33.7901 53.4356 33.3404 52.9034L31.1451 50.2766C30.5765 49.5983 29.6979 49.1485 28.7193 49.0349C23.6063 48.4586 19.9966 44.2534 19.9465 44.1989L17.4548 41.2229C17.1102 40.8126 16.4345 40.714 15.9451 41.0032C15.4563 41.2924 15.3393 41.8595 15.6839 42.2702L18.1746 45.2425C18.3427 45.4426 22.3555 50.1509 28.4248 50.8337C28.806 50.8791 29.1481 51.0551 29.3692 51.3201L31.5794 53.9487C32.1248 54.5999 32.9567 55.0426 33.8907 55.1791C34.8252 55.3156 35.7861 55.1346 36.5614 54.6761L52.8526 45.0407C53.6285 44.5829 54.1555 43.8851 54.3181 43.1008C54.4807 42.3164 54.2651 41.51 53.7187 40.8592L53.457 40.5467C52.46 39.3691 52.0787 37.9015 52.401 36.4826C53.104 33.341 53.7267 28.8412 52.7074 25.2443C52.0574 22.9591 51.28 20.9921 50.524 19.0897C49.4159 16.6434 48.6504 14.0976 48.2429 11.5032C47.996 9.30781 46.6346 7.37 44.8553 6.68092C43.8117 6.25192 42.5702 6.34304 41.6312 6.9181C39.3893 8.24424 39.5331 11.534 39.6883 15.0172C39.7101 15.5182 39.7339 16.0246 39.7488 16.5289C39.7696 17.2105 39.8693 17.9042 39.9754 18.6407C40.078 19.3614 40.1831 20.095 40.2252 20.8656C40.0864 21.179 39.787 21.4232 39.4097 21.5302C38.9635 21.6612 38.4692 21.5984 38.0884 21.3629C36.9194 20.5952 35.9006 19.6785 35.0692 18.6461L35.0637 18.6361L21.4349 2.39959C20.4136 1.18247 18.6788 0.534177 16.9183 0.711855C15.1578 0.88995 13.6556 1.86489 13.0077 3.25011L12.4554 2.59308C10.9224 0.766781 7.91557 0.329036 5.73911 1.61564C3.56316 2.90266 3.0421 5.42636 4.57503 7.25266L5.12832 7.91177C3.35691 7.95754 1.75804 8.81597 0.966287 10.1471C0.174534 11.4782 0.317317 13.0665 1.33812 14.2828L4.63998 18.225C3.58745 18.2479 2.5726 18.5587 1.7506 19.1105Z" fill="#20C997"/>
<path d="M21.7055 41.5145C22.1095 41.5145 22.4804 41.3252 22.6663 41.0239C22.8522 40.7227 22.823 40.3594 22.59 40.0818L18.2851 34.9517C17.9406 34.541 17.2648 34.4428 16.776 34.732C16.2867 35.0211 16.1697 35.5883 16.5142 35.9986L20.8195 41.1329C21.0233 41.373 21.3535 41.5153 21.7055 41.5145Z" fill="#20C997"/>
<path d="M26.8413 46.0275C27.2226 46.0828 27.6103 45.9634 27.8581 45.7138C28.1055 45.4645 28.1759 45.1229 28.0426 44.8183C27.9092 44.5133 27.5919 44.2915 27.2107 44.2362C26.5364 44.1692 25.9117 43.9045 25.4472 43.4888C25.0987 43.0811 24.4219 42.9874 23.9361 43.28C23.4502 43.5729 23.3387 44.1409 23.6877 44.5487C24.475 45.3617 25.6034 45.891 26.8413 46.0275Z" fill="#20C997"/>
<path d="M46.926 43.4279L47.9454 42.8262C48.2617 42.639 48.4342 42.3244 48.399 42.0006C48.3638 41.6773 48.1258 41.3944 47.7743 41.2583C47.4228 41.1222 47.0118 41.1535 46.6955 41.3411L45.6762 41.9428C45.3445 42.1242 45.1571 42.4438 45.1878 42.775C45.2186 43.1067 45.463 43.3979 45.8244 43.534C46.1863 43.6701 46.6073 43.6293 46.9231 43.4279H46.926Z" fill="#20C997"/>
<path d="M35.7264 50.0518L42.8546 45.8366C43.344 45.5474 43.4605 44.9803 43.1159 44.5696C42.7709 44.1593 42.0951 44.0611 41.6063 44.3507L34.4776 48.5655C33.9887 48.8551 33.8717 49.4222 34.2168 49.8329C34.5614 50.2432 35.2376 50.3414 35.7264 50.0518Z" fill="#20C997"/>
<path d="M15.1799 55.2224C15.7783 55.2224 16.2631 54.8155 16.2631 54.3132C16.2631 53.8114 15.7783 53.4045 15.1799 53.4045C8.0055 53.3978 2.19105 48.5181 2.18362 42.4962C2.18362 41.9944 1.69875 41.5874 1.10035 41.5874C0.502446 41.5874 0.0175781 41.9944 0.0175781 42.4962C0.0265021 49.5217 6.80969 55.2149 15.1799 55.2224Z" fill="#20C997"/>
<path d="M6.51468 41.5874C6.51468 41.0852 6.02981 40.6782 5.43141 40.6782C4.8335 40.6782 4.34863 41.0852 4.34863 41.5874C4.35607 47.1071 9.68566 51.5798 16.2621 51.5865C16.86 51.5865 17.3449 51.1795 17.3449 50.6773C17.3449 50.1755 16.86 49.7685 16.2621 49.7685C10.881 49.7635 6.52063 46.1034 6.51468 41.5874Z" fill="#20C997"/>
<path d="M49.8386 0.682373C49.2407 0.682373 48.7559 1.08933 48.7559 1.59115C48.7559 2.09339 49.2407 2.50035 49.8386 2.50035C57.013 2.50701 62.8274 7.3867 62.8349 13.4082C62.8349 13.9104 63.3202 14.3174 63.9181 14.3174C64.5165 14.3174 65.0014 13.9104 65.0014 13.4082C64.992 6.38305 58.2088 0.689863 49.8386 0.682373Z" fill="#20C997"/>
<path d="M48.7532 6.13633C54.1339 6.14133 58.4942 9.80099 58.5002 14.3174C58.5002 14.8192 58.985 15.2262 59.5834 15.2262C60.1813 15.2262 60.6662 14.8192 60.6662 14.3174C60.6588 8.79775 55.3292 4.32502 48.7532 4.31836C48.1548 4.31836 47.6699 4.72531 47.6699 5.22714C47.6699 5.72938 48.1548 6.13633 48.7532 6.13633Z" fill="#20C997"/>
</svg>
