<svg width="33" height="33" viewBox="0 0 33 33" version="1.1" xmlns="http://www.w3.org/2000/svg" xmlns:xlink="http://www.w3.org/1999/xlink">
<title>list</title>
<desc>Created using Figma</desc>
<g id="Canvas" transform="translate(-4329 -1955)">
<g id="list">
<g id="Vector">
<use xlink:href="#path0_stroke" transform="translate(4330 1968)" fill="#999999"/>
</g>
<g id="Vector">
<use xlink:href="#path1_stroke" transform="translate(4330 1956)" fill="#999999"/>
</g>
<g id="Vector">
<use xlink:href="#path2_stroke" transform="translate(4330 1980)" fill="#999999"/>
</g>
<g id="Vector">
<use xlink:href="#path3_stroke" transform="translate(4344 1959)" fill="#999999"/>
</g>
<g id="Vector">
<use xlink:href="#path4_stroke" transform="translate(4344 1971)" fill="#999999"/>
</g>
<g id="Vector">
<use xlink:href="#path5_stroke" transform="translate(4344 1983)" fill="#999999"/>
</g>
</g>
</g>
<defs>
<path id="path0_stroke" d="M 4.69054e-06 1.68478e-06L 4.69054e-06 -0.999998C -0.55228 -0.999998 -0.999995 -0.552283 -0.999995 1.68478e-06L 4.69054e-06 1.68478e-06ZM 6.00389 1.68478e-06L 7.00389 1.68478e-06C 7.00389 -0.552283 6.55618 -0.999998 6.00389 -0.999998L 6.00389 1.68478e-06ZM 6.00389 6.00075L 6.00389 7.00075C 6.55618 7.00075 7.00389 6.55304 7.00389 6.00075L 6.00389 6.00075ZM 4.69054e-06 6.00075L -0.999995 6.00075C -0.999995 6.55304 -0.55228 7.00075 4.69054e-06 7.00075L 4.69054e-06 6.00075ZM 4.69054e-06 1L 6.00389 1L 6.00389 -0.999998L 4.69054e-06 -0.999998L 4.69054e-06 1ZM 5.00389 1.68478e-06L 5.00389 6.00075L 7.00389 6.00075L 7.00389 1.68478e-06L 5.00389 1.68478e-06ZM 6.00389 5.00075L 4.69054e-06 5.00075L 4.69054e-06 7.00075L 6.00389 7.00075L 6.00389 5.00075ZM 1 6.00075L 1 1.68478e-06L -0.999995 1.68478e-06L -0.999995 6.00075L 1 6.00075Z"/>
<path id="path1_stroke" d="M 4.69054e-06 -5.49385e-07L 4.69054e-06 -1C -0.55228 -1 -0.999995 -0.552285 -0.999995 -5.49385e-07L 4.69054e-06 -5.49385e-07ZM 6.00389 -5.49385e-07L 7.00389 -5.49385e-07C 7.00389 -0.552285 6.55618 -1 6.00389 -1L 6.00389 -5.49385e-07ZM 6.00389 6.00075L 6.00389 7.00075C 6.55618 7.00075 7.00389 6.55303 7.00389 6.00075L 6.00389 6.00075ZM 4.69054e-06 6.00075L -0.999995 6.00075C -0.999995 6.55303 -0.55228 7.00075 4.69054e-06 7.00075L 4.69054e-06 6.00075ZM 4.69054e-06 0.999999L 6.00389 0.999999L 6.00389 -1L 4.69054e-06 -1L 4.69054e-06 0.999999ZM 5.00389 -5.49385e-07L 5.00389 6.00075L 7.00389 6.00075L 7.00389 -5.49385e-07L 5.00389 -5.49385e-07ZM 6.00389 5.00075L 4.69054e-06 5.00075L 4.69054e-06 7.00075L 6.00389 7.00075L 6.00389 5.00075ZM 1 6.00075L 1 -5.49385e-07L -0.999995 -5.49385e-07L -0.999995 6.00075L 1 6.00075Z"/>
<path id="path2_stroke" d="M 4.69054e-06 -9.88893e-07L 4.69054e-06 -1C -0.55228 -1 -0.999995 -0.552286 -0.999995 -9.88893e-07L 4.69054e-06 -9.88893e-07ZM 6.00389 -9.88893e-07L 7.00389 -9.88893e-07C 7.00389 -0.552286 6.55618 -1 6.00389 -1L 6.00389 -9.88893e-07ZM 6.00389 6.00075L 6.00389 7.00075C 6.55618 7.00075 7.00389 6.55303 7.00389 6.00075L 6.00389 6.00075ZM 4.69054e-06 6.00075L -0.999995 6.00075C -0.999995 6.55303 -0.55228 7.00075 4.69054e-06 7.00075L 4.69054e-06 6.00075ZM 4.69054e-06 0.999999L 6.00389 0.999999L 6.00389 -1L 4.69054e-06 -1L 4.69054e-06 0.999999ZM 5.00389 -9.88893e-07L 5.00389 6.00075L 7.00389 6.00075L 7.00389 -9.88893e-07L 5.00389 -9.88893e-07ZM 6.00389 5.00075L 4.69054e-06 5.00075L 4.69054e-06 7.00075L 6.00389 7.00075L 6.00389 5.00075ZM 1 6.00075L 1 -9.88893e-07L -0.999995 -9.88893e-07L -0.999995 6.00075L 1 6.00075Z"/>
<path id="path3_stroke" d="M -1.31431e-05 -1.5C -0.82844 -1.5 -1.50001 -0.828428 -1.50001 -9.15527e-07C -1.50001 0.828426 -0.82844 1.5 -1.31431e-05 1.5L -1.31431e-05 -1.5ZM 16 1.5C 16.8284 1.5 17.5 0.828426 17.5 -9.15527e-07C 17.5 -0.828428 16.8284 -1.5 16 -1.5L 16 1.5ZM -1.31431e-05 1.5L 16 1.5L 16 -1.5L -1.31431e-05 -1.5L -1.31431e-05 1.5Z"/>
<path id="path4_stroke" d="M -1.31431e-05 -1.5C -0.82844 -1.5 -1.50001 -0.828425 -1.50001 2.44141e-06C -1.50001 0.82843 -0.82844 1.5 -1.31431e-05 1.5L -1.31431e-05 -1.5ZM 16 1.5C 16.8284 1.5 17.5 0.82843 17.5 2.44141e-06C 17.5 -0.828425 16.8284 -1.5 16 -1.5L 16 1.5ZM -1.31431e-05 1.5L 16 1.5L 16 -1.5L -1.31431e-05 -1.5L -1.31431e-05 1.5Z"/>
<path id="path5_stroke" d="M -1.31431e-05 -1.5C -0.82844 -1.5 -1.50001 -0.828429 -1.50001 -1.64795e-06C -1.50001 0.828425 -0.82844 1.5 -1.31431e-05 1.5L -1.31431e-05 -1.5ZM 16 1.5C 16.8284 1.5 17.5 0.828425 17.5 -1.64795e-06C 17.5 -0.828429 16.8284 -1.5 16 -1.5L 16 1.5ZM -1.31431e-05 1.5L 16 1.5L 16 -1.5L -1.31431e-05 -1.5L -1.31431e-05 1.5Z"/>
</defs>
</svg>
