<svg width="21" height="23" viewBox="0 0 21 23" fill="none" xmlns="http://www.w3.org/2000/svg">
<path fill-rule="evenodd" clip-rule="evenodd" d="M14.1462 0.0437012H2.68783C1.54199 0.0437012 0.604492 0.981201 0.604492 2.12703V15.6687C0.604492 16.2416 1.07324 16.7104 1.64616 16.7104C2.21908 16.7104 2.68783 16.2416 2.68783 15.6687V3.1687C2.68783 2.59578 3.15658 2.12703 3.72949 2.12703H14.1462C14.7191 2.12703 15.1878 1.65828 15.1878 1.08537C15.1878 0.512451 14.7191 0.0437012 14.1462 0.0437012ZM18.3128 4.21231H6.85449C5.70866 4.21231 4.77116 5.14981 4.77116 6.29564V20.8789C4.77116 22.0247 5.70866 22.9622 6.85449 22.9622H18.3128C19.4587 22.9622 20.3962 22.0247 20.3962 20.8789V6.29564C20.3962 5.14981 19.4587 4.21231 18.3128 4.21231ZM7.89616 20.877H17.2712C17.8441 20.877 18.3128 20.4083 18.3128 19.8354V7.33537C18.3128 6.76245 17.8441 6.2937 17.2712 6.2937H7.89616C7.32324 6.2937 6.85449 6.76245 6.85449 7.33537V19.8354C6.85449 20.4083 7.32324 20.877 7.89616 20.877Z" fill="black" fill-opacity="0.54"/>
</svg>
